<svg width="1728" height="184" preserveAspectRatio="none" viewBox="0 0 1728 184" xmlns="http://www.w3.org/2000/svg">
<path d="M1743.5 0.540039H-15.5V183.54H1743.5V0.540039Z" fill="#F25151"/>
<path d="M986.33 189H743.71C747.2 153.67 750.68 118.33 754.17 83H973.78C977.96 118.33 982.15 153.67 986.33 189Z" fill="green"/>
<path d="M1449.04 83.0303H1212.55L1253.42 183.59H1519.78L1449.04 83.0303Z" fill="#D94646"/>
<path d="M1391.33 0.589844H1600.56L1676.21 83.0298H1449.04L1391.33 0.589844Z" fill="green"/>
<path d="M1675.75 82.5898C1748.81 82.9198 1821.87 83.2598 1894.92 83.5898C1927.85 116.61 1960.79 149.62 1993.72 182.64H1766.55C1736.28 149.29 1706.01 115.94 1675.74 82.5898H1675.75Z" fill="green"/>
<path d="M962.67 0.540039H1172.67C1185.85 28.09 1199.04 55.6401 1212.22 83.1901C1132.6 83.0001 1052.99 82.8201 973.37 82.6301C969.8 55.2701 966.24 27.9 962.67 0.540039Z" fill="#D94646"/>
<path d="M278.96 83.0303H515.45L474.58 183.59H208.22L278.96 83.0303Z" fill="#D94646"/>
<path d="M336.67 0.589844H127.44L51.79 83.0298H278.96L336.67 0.589844Z" fill="#D94646"/>
<path d="M52.2498 82.5898C-20.8102 82.9198 -93.8702 83.2598 -166.92 83.5898L-265.72 182.64H-38.5502C-8.28021 149.29 21.9898 115.94 52.2598 82.5898H52.2498Z" fill="#D94646"/>
<path d="M765.33 0.540039H555.33C542.15 28.09 528.96 55.6401 515.78 83.1901C595.4 83.0001 675.01 82.8201 754.63 82.6301C758.2 55.2701 761.76 27.9 765.33 0.540039Z" fill="#D94646"/>
</svg>
