<svg width="3170" height="1117" viewBox="0 0 3170 1117" fill="none" xmlns="http://www.w3.org/2000/svg">
    <g clip-path="url(#clip0_135_264)">
        <rect width="3170" height="1117" fill="#7D55C7" />
        <path
            d="M2581.95 -0.972656C2572.81 186.31 2565.69 322.387 2565.1 345.448C2564.96 350.654 2564.74 366.533 2553.86 376.345C2549.27 380.483 2544.41 382.084 2541.69 382.899C2515.37 390.782 2473.63 390.024 2448.06 392.261C2410.37 395.557 2386.24 407.242 2380.65 410.051C2367.27 416.754 2349.23 426.098 2338.52 445.629C2329.58 461.939 2329.82 477.912 2330.09 487.761C2334.36 641.881 2353.86 674.117 2363.8 688.123C2373.33 701.568 2382.06 709.508 2390.95 715.275C2398.73 720.331 2410.59 726.08 2457.42 731.192C2490.64 734.815 2503.86 733.991 2531.39 740.554C2551.61 745.376 2562.79 750.198 2569.78 760.216C2578.33 772.5 2576.78 787.153 2576.33 792.049C2573.41 824.257 2572.31 945.72 2571.65 1116H2609.1C2622.8 931.816 2632.75 798.322 2633.44 775.197C2633.55 771.826 2633.74 760.946 2640.93 751.79C2648.91 741.622 2661.29 738.935 2667.15 737.746C2719.51 727.11 2752.09 726.323 2785.12 713.403C2801.91 706.83 2817.24 700.145 2828.19 684.378C2835.74 673.499 2837.56 662.226 2836.61 625.393C2835.24 572.119 2834.55 545.482 2825.38 513.04C2815.46 477.996 2810.51 460.469 2798.23 448.438C2764.37 415.266 2691.54 407.438 2679.32 406.305C2667.29 405.191 2651.07 402.944 2639.06 390.389C2626.45 377.206 2625.38 359.174 2625.02 351.065C2623.36 314.635 2618.84 181.188 2614.72 -0.972656H2581.95V-0.972656Z"
            fill="#4D4ABF" />
        <path
            d="M2894.66 -0.971912C2891.4 25.3841 2888.08 47.4895 2885.3 64.539C2883.93 72.9655 2882.96 78.5269 2878.75 84.1913C2868.97 97.3553 2851.62 97.7298 2825.4 100.099C2778.46 104.349 2754.6 106.699 2734.62 117.878C2712.93 130.012 2702.05 146.481 2699.99 149.702C2689.76 165.628 2688.05 181.124 2685.02 211.468C2680.53 256.578 2678.52 280.078 2692.51 303.185C2699.62 314.926 2707.72 321.368 2717.78 329.392C2745.94 351.815 2777.83 360.785 2820.73 372.441C2843 378.499 2852.23 379.763 2861.9 389.285C2877.17 404.312 2878.94 425.528 2879.68 436.08C2885.52 519.473 2884.22 571.905 2887.17 619.514C2889.21 652.546 2886.98 686.457 2882.49 754.281C2882.18 759.028 2881.26 770.544 2873.13 779.551C2864.7 788.876 2853.39 790.131 2832.89 792.649C2781.75 798.941 2771.32 799.082 2754.28 806.684C2745.03 810.813 2736.08 814.802 2727.6 823.996C2708.3 844.94 2709.34 873.459 2709.82 886.698C2710.3 899.824 2711.22 924.926 2728.07 945.187C2741.54 961.365 2768.24 971.262 2821.66 991.045C2834.97 995.97 2845.15 999.444 2853.49 1009.76C2858.59 1016.09 2862.98 1025 2865.65 1057.49C2866.84 1071.95 2867.74 1091.75 2866.58 1115.51C2878.91 1115.67 2891.23 1115.82 2903.55 1115.98C2902.44 1099.87 2902.44 1075.17 2909.63 1046.26C2914.66 1026.02 2917.2 1015.93 2925.07 1007.42C2948.25 982.385 2981.51 1005.57 3013.98 984.959C3046.83 964.109 3055.94 914.318 3050.48 880.144C3048.6 868.431 3044.67 843.77 3025.21 827.731C3014.75 819.118 3001.7 815.438 2975.6 808.079C2945.95 799.718 2943.31 802.33 2936.3 798.716C2905.57 782.893 2926.25 717.401 2922.26 603.12C2920.27 546.213 2925.9 489.26 2925.54 432.325C2925.48 422.719 2925.22 395.811 2942.38 382.722C2950.17 376.786 2958.25 376.177 2966.72 375.231C3003.5 371.14 3043.6 366.683 3069.66 344.344C3081.75 333.989 3087.46 322.669 3093.99 309.72C3096.71 304.337 3109.52 278.131 3109.9 240.464C3110.12 219.23 3110.39 193.173 3093.99 170.272C3083.66 155.844 3071.35 149.141 3054.69 140.321C2994.33 108.366 2953.03 120.547 2937.7 91.6534C2935.33 87.1781 2934.25 78.3771 2932.09 60.7658C2928.92 34.9715 2929.3 13.5216 2930.21 -1H2894.65L2894.66 -0.971912Z"
            fill="#4D4ABF" />
        <path
            d="M2450.87 446.968C2518.4 439.496 2593.69 445.142 2619.4 446.968C2687.78 451.837 2710.52 451.443 2734.56 471.311C2750.23 484.26 2758.52 499.259 2762.65 506.889C2767.43 515.728 2788.68 557.448 2773.88 606.134C2771.11 615.263 2766.41 630.749 2754.22 644.521C2740.12 660.466 2719.58 670.072 2595.06 671.673C2525.11 672.572 2492.23 670.053 2455.55 653.884C2442.3 648.042 2430.83 642.864 2419.04 631.413C2375.38 589.038 2388.31 520.053 2390.95 505.953C2396.26 477.65 2406.01 467.126 2410.61 462.885C2424.37 450.17 2441.42 448.017 2450.87 446.968Z"
            fill="#F277C7" />
        <path
            d="M2803.6 836.842C2824.71 825.382 2839.23 832.666 2892.51 837.141C2937.18 840.896 2947.14 837.478 2961.73 848.611C2978.95 861.756 2984.54 881.39 2985.93 887.063C2987.9 895.05 2992.11 912.127 2982.98 929.167C2975.3 943.511 2962.52 949.7 2958.57 951.544C2945.56 957.621 2936.05 955.87 2910.83 954.194C2865.03 951.132 2857.76 954.334 2829.43 948.305C2808.97 943.951 2800.63 939.701 2793.92 933.212C2783 922.66 2779.87 909.59 2778.12 902.278C2776.09 893.823 2771.73 875.631 2781.07 858.301C2787.97 845.53 2798.99 839.36 2803.61 836.851L2803.6 836.842Z"
            fill="#F277C7" />
        <path
            d="M2787.04 164.682C2805.13 156.134 2821.26 155.347 2843.19 155.319C2893.55 155.263 2918.72 155.235 2943.33 160.937C2984.01 170.355 3009.36 176.226 3026.62 200.241C3048.13 230.155 3041.45 266.454 3040.66 270.434C3039.29 277.296 3035.27 297.417 3020.07 312.547C3004.28 328.258 2985.08 329.98 2900.27 326.582C2809.51 322.949 2788.78 319.251 2772.99 301.312C2762.47 289.365 2758.01 275.48 2754.28 263.88C2748.68 246.465 2738.9 216.064 2754.28 190.879C2763.49 175.805 2777.77 169.054 2787.04 164.672V164.682Z"
            fill="#F277C7" />
    </g>
</svg>
